<?xml version="1.0" encoding="UTF-8" standalone="no"?>
<svg
   xmlns:osb="http://www.openswatchbook.org/uri/2009/osb"
   xmlns:dc="http://purl.org/dc/elements/1.1/"
   xmlns:cc="http://creativecommons.org/ns#"
   xmlns:rdf="http://www.w3.org/1999/02/22-rdf-syntax-ns#"
   xmlns:svg="http://www.w3.org/2000/svg"
   xmlns="http://www.w3.org/2000/svg"
   xmlns:sodipodi="http://sodipodi.sourceforge.net/DTD/sodipodi-0.dtd"
   xmlns:inkscape="http://www.inkscape.org/namespaces/inkscape"
   version="1.1"
   width="23.75"
   height="962.5"
   viewBox="0 0 23.75 962.49999"
   id="svg881"
   sodipodi:docname="sprite (copy).svg"
   inkscape:version="0.92.3 (2405546, 2018-03-11)">
  <metadata
     id="metadata887">
    <rdf:RDF>
      <cc:Work
         rdf:about="">
        <dc:format>image/svg+xml</dc:format>
        <dc:type
           rdf:resource="http://purl.org/dc/dcmitype/StillImage" />
        <dc:title></dc:title>
      </cc:Work>
    </rdf:RDF>
  </metadata>
  <defs
     id="defs885">
    <linearGradient
       id="linearGradient844"
       osb:paint="solid">
      <stop
         style="stop-color:#ff8000;stop-opacity:1;"
         offset="0"
         id="stop842" />
    </linearGradient>
  </defs>
  <sodipodi:namedview
     pagecolor="#ffffff"
     bordercolor="#666666"
     borderopacity="1"
     objecttolerance="10"
     gridtolerance="10"
     guidetolerance="10"
     inkscape:pageopacity="0"
     inkscape:pageshadow="2"
     inkscape:window-width="1851"
     inkscape:window-height="1056"
     id="namedview883"
     showgrid="false"
     inkscape:zoom="1.7383042"
     inkscape:cx="-71.746345"
     inkscape:cy="196.32497"
     inkscape:window-x="69"
     inkscape:window-y="24"
     inkscape:window-maximized="1"
     inkscape:current-layer="layer2"
     fit-margin-bottom="1.2"
     viewbox-height="640.7"
     viewbox-y="1.5"
     fit-margin-top="-0.1"
     fit-margin-left="0"
     fit-margin-right="0" />
  <g
     inkscape:groupmode="layer"
     id="layer2"
     inkscape:label="l2"
     transform="translate(-0.95324846,167.39575)">
    <path
       id="path1600"
       d="m 7.3282494,309.81371 c -0.89,0 -1.61,-0.72 -1.61,-1.61 a 1.61,1.61 0 0 1 1.61,-1.61 c 0.89,0 1.61,0.72 1.61,1.61 v 0 a 1.61,1.61 0 0 1 -1.61,1.61 m 0,-6.11 c -2.5,0 -4.5,2 -4.5,4.5 0,3.37 4.5,8.36 4.5,8.36 0,0 4.4999986,-4.99 4.4999986,-8.36 0,-2.5 -2.0000006,-4.5 -4.4999986,-4.5 m 10.9999976,6.11 a 1.61,1.61 0 0 1 -1.61,-1.61 c 0,-0.89 0.72,-1.61 1.61,-1.61 0.89,0 1.61,0.72 1.61,1.61 a 1.61,1.61 0 0 1 -1.61,1.61 m 0,-6.11 c -2.5,0 -4.5,2 -4.5,4.5 0,3.37 4.5,8.36 4.5,8.36 0,0 4.5,-4.99 4.5,-8.36 0,-2.5 -2,-4.5 -4.5,-4.5 m 0,14 c -1.27,0 -2.4,0.8 -2.82,2 h -5.359999 c -0.5500006,-1.56 -2.2699986,-2.38 -3.8199986,-1.83 -1.57,0.55 -2.39,2.27 -1.84,3.83 0.56,1.56 2.27,2.38 3.84,1.83 0.849999,-0.3 1.499998,-0.98 1.8199986,-1.83 h 5.369999 c 0.55,1.56 2.27,2.38 3.81,1.83 1.58,-0.55 2.4,-2.27 1.85,-3.83 -0.43,-1.2 -1.57,-2 -2.85,-2 v 0 m 0,4.5 a 1.5,1.5 0 0 1 -1.5,-1.5 1.5,1.5 0 0 1 1.5,-1.5 1.5,1.5 0 0 1 1.5,1.5 1.5,1.5 0 0 1 -1.5,1.5 z"
       inkscape:connector-curvature="0"
       style="fill:#ff6600;fill-opacity:1" />
    <path
       id="path1611"
       d="m 9.2882484,389.06425 -1.4099999,1.41001 -1.37,-1.37 c -0.8600001,1.11 -1.4400001,2.43999 -1.6200001,3.89999 h 1.9400001 v 2 h -4 v -1 c 0,-4.83999 3.4399999,-8.87 8.0000005,-9.8 v -2 l -8.0000005,-3.2 v -2 H 22.828248 v 2 l -8,3.2 v 2 c 4.56,0.93 8,4.96 8,9.8 v 1 h -4 v -2 h 1.94 c -0.18,-1.46 -0.76,-2.79 -1.62,-3.89999 l -1.37,1.37 -1.41,-1.41001 1.37,-1.38 c -1.11,-0.86 -2.45,-1.44 -3.91,-1.62 v 1.94 h -1.999999 v -1.94 c -1.46,0.18 -2.8000006,0.76 -3.9100006,1.62 l 1.37,1.38 m 3.5399996,2.94 a 2,2 0 0 1 2,2 2,2 0 0 1 -2,2 c -0.32,0 -0.619999,-0.07 -0.879999,-0.21 l -3.8500006,-1.79 3.8500006,-1.79 c 0.26,-0.14 0.559999,-0.21 0.879999,-0.21 z"
       inkscape:connector-curvature="0"
       style="fill:#ff6600;fill-opacity:1" />
    <path
       id="path1622"
       d="M 20.828247,246.90425 H 4.8282495 v -12 H 20.828247 m 0,-2 H 4.8282495 c -1.11,0 -2,0.88999 -2,2 v 12 a 2,2 0 0 0 2,2 H 20.828247 a 2,2 0 0 0 2,-2 v -12 c 0,-1.11001 -0.9,-2 -2,-2 m -8.999999,13 h 1.999999 v -1 h 1 a 1,1 0 0 0 1,-1 v -3 a 1,1 0 0 0 -1,-1 h -2.999999 v -1 h 3.999999 v -2 h -2 v -1 h -1.999999 v 1 h -1 a 1,1 0 0 0 -0.9999985,1 v 3 a 1,1 0 0 0 0.9999985,1 h 2.999999 v 1 H 9.8282495 v 2 h 1.9999985 z"
       inkscape:connector-curvature="0"
       style="fill:#ff6600;fill-opacity:1" />
    <path
       id="path1633"
       d="M 4.8282465,342.10425 H 20.82825 a 2,2 0 0 1 2,2 v 12 a 2,2 0 0 1 -2,2 H 4.8282465 c -1.11,0 -2,-0.9 -2,-2 v -12 c 0,-1.11 0.89,-2 2,-2 m 8.0000035,7 8,-5 H 4.8282465 l 8.0000035,5 m -8.0000035,7 H 20.82825 v -9.63 l -8,4.98999 -8.0000035,-4.98999 z"
       inkscape:connector-curvature="0"
       style="fill:#ff6600;fill-opacity:1" />
    <path
       id="path1644"
       d="m 12.828247,268.80425 -9.9999975,9 h 3 v 8 H 19.828247 v -8 h 3 l -10,-9 m 0,5.75 a 2.25,2.25 0 0 1 2.25,2.25 2.25,2.25 0 0 1 -2.25,2.25 2.25,2.25 0 0 1 -2.249999,-2.25 2.25,2.25 0 0 1 2.249999,-2.25 m 0,6.25 c 1.5,0 4.5,0.75 4.5,2.25 v 0.75 H 8.3282495 v -0.75 c 0,-1.5 2.9999985,-2.25 4.4999975,-2.25 z"
       inkscape:connector-curvature="0"
       style="fill:#ff6600;fill-opacity:1" />
    <path
       id="path1657"
       d="m 15.900417,427.47662 c -1.39,0.99 -3.09,1.573 -4.926999,1.573 -4.6940017,0 -8.5000017,-3.806 -8.5000017,-8.5 0,-4.694 3.806,-8.5 8.5000017,-8.5 4.693999,0 8.499999,3.806 8.499999,8.5 0,2.347 -0.951,4.472 -2.49,6.01 l 5.997,5.997 c 0.275,0.275 0.268,0.716 -0.008,0.992 -0.278,0.278 -0.72,0.28 -0.992,0.008 l -6.081,-6.081 z m -4.926999,0.573 c 4.141999,0 7.499999,-3.358 7.499999,-7.5 0,-4.142 -3.358,-7.5 -7.499999,-7.5 -4.1420017,0 -7.5000017,3.358 -7.5000017,7.5 0,4.142 3.358,7.5 7.5000017,7.5 z"
       inkscape:connector-curvature="0"
       style="fill:#ff6600;fill-opacity:1" />
    <path
       id="path838"
       d="m 18.478248,562.85426 c -1.45,-1.45001 -3.44,-2.35001 -5.65,-2.35001 a 8,8 0 0 0 -7.9999995,8 8,8 0 0 0 7.9999995,8 c 3.73,0 6.84,-2.54999 7.73,-6 h -2.08 c -0.82,2.33001 -3.04,4 -5.65,4 a 6,6 0 0 1 -6.0000001,-6 6,6 0 0 1 6.0000001,-6 c 1.66,0 3.14,0.69002 4.22,1.78 l -3.22,3.22 h 7 v -7 z"
       inkscape:connector-curvature="0"
       style="fill:#ffffff;fill-opacity:0.96862745" />
    <path
       id="path849"
       d="m 12.828248,452.30425 c 4.97,0 9,2.69 9,6 0,1.68 -1.04,3.2 -2.71,4.29 1.07,-0.87 1.71,-1.97 1.71,-3.16 0,-2.84 -3.58,-5.13 -8,-5.13 v 3 l -3.9999995,-4 3.9999995,-4 v 3 m 0,14 c -4.9699995,0 -8.9999995,-2.69 -8.9999995,-6 0,-1.68 1.039999,-3.2 2.709999,-4.29 -1.07,0.87 -1.71,1.97 -1.71,3.17 0,2.83 3.580001,5.12 8.0000005,5.12 v -3 l 4,4 -4,4 z"
       inkscape:connector-curvature="0"
       style="fill:#ff6600;fill-opacity:1" />
    <path
       id="path860"
       d="m 16.82825,533.10425 v -2 h 5 v 2 h -5 m -1.17,-5.24 2.83,-2.83 1.41,1.41 -2.83,2.83 -1.41,-1.41 m -3.83,8.24 h 2 v 5 h -2 v -5 m 0,-13 h 2 v 5 h -2 v -5 m -6.0700005,14.66 2.83,-2.83 1.41,1.40999 -2.83,2.83001 -1.41,-1.41 m 0,-11.32 1.41,-1.41 2.83,2.83 -1.41,1.41 -2.83,-2.83 m 3.07,6.65999 h -5.000003 v -2 h 5.000003 v 2 m 11.0700005,4.66 -1.41,1.41 -2.83,-2.83 1.41,-1.41 z"
       inkscape:connector-curvature="0"
       style="fill:#ff6600;fill-opacity:1" />
    <path
       id="path871"
       d="m 21.242941,490.7455 c -0.34,0.34 -0.67,0.67 -0.68,1 -0.03,0.32 0.31,0.65 0.63,0.96 0.48,0.5 0.95,0.94999 0.93,1.44 -0.02,0.49 -0.53,1 -1.04,1.5 l -4.13,4.13999 -1.42,-1.42001 4.25,-4.24 -0.96,-0.95999 -1.42,1.41001 -3.75,-3.75 3.84,-3.83 c 0.39,-0.39 1.04,-0.39 1.41,0 l 2.34,2.34 c 0.39,0.37 0.39,1.01999 0,1.41 m -17.710002,10.21 9.560002,-9.57 3.75,3.75 -9.560002,9.57 h -3.75 z"
       inkscape:connector-curvature="0"
       style="fill:#ff6600;fill-opacity:1" />
    <path
       id="path836"
       d="m 15.288243,-46.18575 1.42,-1.41998 2.12,2.13 2.12,-2.13 1.42001,1.41998 -2.13001,2.12 2.13001,2.12001 -1.42001,1.41999 -2.12,-2.13 -2.12,2.13 -1.42,-1.41999 2.13,-2.12001 -2.13,-2.12 m -4.460002,-13.88 h 4.000002 a 2,2 0 0 1 2,2 v 2 h 4 a 2,2 0 0 1 2.00001,2 v 5.53 c -1.06001,-0.95 -2.46001,-1.53 -4.00001,-1.53 a 6,6 0 0 0 -6,6 c 0,1.09002 0.29,2.12001 0.8,3 H 4.8282434 c -1.11,0 -2,-0.89999 -2,-2 v -11 c 0,-1.11 0.89,-2 2,-2 h 3.999999 v -2 c 0,-1.11 0.889999,-2 1.9999986,-2 m 4.000002,4 v -2 h -4.000002 v 2 z"
       inkscape:connector-curvature="0"
       style="fill:#ff6600;fill-opacity:1" />
    <path
       id="path847"
       d="m 12.828243,632.80425 -9.9999995,9 h 3 v 8 H 19.828243 v -8 h 3.00001 l -10.00001,-9 m 0,4.70001 c 2.1,0 3.8,1.70002 3.8,3.79999 0,3 -3.8,6.5 -3.8,6.5 0,0 -3.7999995,-3.5 -3.7999995,-6.5 0,-2.1 1.6999995,-3.79999 3.7999995,-3.79999 m 0,2.29999 a 1.5,1.5 0 0 0 -1.5,1.5 1.5,1.5 0 0 0 1.5,1.5 1.5,1.5 0 0 0 1.5,-1.5 1.5,1.5 0 0 0 -1.5,-1.5 z"
       inkscape:connector-curvature="0"
       style="fill:#ff6600;fill-opacity:1" />
    <path
       id="path858"
       d="m 16.133243,677.00926 c 2.5,0 4.5,2 4.5,4.5 0,0.88 -0.25,1.7 -0.69,2.4 l 3.08001,3.1 -1.39001,1.39 -3.12,-3.07001 c -0.69,0.42999 -1.51,0.67999 -2.38,0.67999 -2.5,0 -4.5,-2 -4.5,-4.5 0,-2.5 2,-4.5 4.5,-4.5 m 0,2 a 2.5,2.5 0 0 0 -2.5,2.5 2.5,2.5 0 0 0 2.5,2.5 2.5,2.5 0 0 0 2.5,-2.5 2.5,2.5 0 0 0 -2.5,-2.5 m 4,-12 a 0.5,0.5 0 0 1 0.5,0.5 v 9.30999 c -0.58,-0.54999 -1.25,-1 -2,-1.30999 v -5.79999 l -3,1.15999 v 4.14 c -0.7,0.07 -1.38,0.24 -2,0.5 v -4.63 l -3.9999996,-1.4 v 11.66 0 0.37 c 0,0.64 0.09,1.26 0.26,1.84001 l -1.260001,-0.44001 -5.339999,2.07 -0.16,0.03 a 0.5,0.5 0 0 1 -0.5,-0.5 v -15.12 c 0,-0.23 0.15,-0.41 0.36,-0.48 l 5.639999,-1.9 6.0000006,2.1 5.34,-2.07 0.16,-0.03 m -15.4999996,3.46001 v 11.85 l 3,-1.15999 v -11.70001 z"
       inkscape:connector-curvature="0"
       style="fill:#ff6600;fill-opacity:1;stroke:none;stroke-opacity:1" />
    <path
       id="path869"
       d="m 12.828253,594.40425 c 3.31,0 6,2.66 6,5.95001 0,4.46002 -6,11.04999 -6,11.04999 0,0 -6.0000095,-6.59 -6.0000095,-11.04999 0,-3.28998 2.69,-5.95001 6.0000095,-5.95001 m 0,4 a 2,2 0 0 0 -2,2 2,2 0 0 0 2,2 2,2 0 0 0 2,-2 2,2 0 0 0 -2,-2 m 8,13 c 0,2.21001 -3.58,4 -8,4 -4.4200095,0 -8.0000095,-1.78999 -8.0000095,-4 0,-1.28999 1.22,-2.44 3.11,-3.16999 l 0.64,0.90999 c -1.08,0.45002 -1.75,1.07002 -1.75,1.76 0,1.38 2.69,2.5 6.0000095,2.5 3.31,0 6,-1.12 6,-2.5 0,-0.69 -0.67,-1.30998 -1.75,-1.76 l 0.64,-0.90999 c 1.89,0.73001 3.11,1.88 3.11,3.16999 z"
       inkscape:connector-curvature="0"
       style="fill:#ff6600;fill-opacity:1" />
    <path
       d="m 10.828246,136.70424 -4.9999996,-5 1.41,-1.42 3.5899996,3.59001 7.59,-7.59001 1.41,1.42 m -7,-5.99999 a 10,10 0 0 0 -9.9999966,9.99999 10,10 0 0 0 9.9999976,10.00001 10,10 0 0 0 10,-10.00001 10,10 0 0 0 -10.000001,-9.99999 z"
       id="path879"
       inkscape:connector-curvature="0"
       style="fill:#00d700;fill-opacity:1" />
    <path
       id="path1443"
       d="m 12.828249,48.90425 c 5.53,0 10,4.47 10,10 0,5.53 -4.47,10 -10,10 -5.5300005,0 -10.0000015,-4.47 -10.0000015,-10 0,-5.53 4.470001,-10 10.0000015,-10 m 3.590001,5 -3.590001,3.59 -3.5900005,-3.59 -1.41,1.41 3.5900015,3.59 -3.5900015,3.59 1.41,1.41 3.5900005,-3.59 3.590001,3.59 1.409999,-1.41 -3.59,-3.59 3.59,-3.59 z"
       inkscape:connector-curvature="0"
       style="fill:#ff2a2a;fill-opacity:1" />
    <path
       id="path1454"
       d="m 22.828247,95.30424 v 8.00002 a 2,2 0 0 1 -2,2 H 4.8282495 a 2,2 0 0 1 -2,-2 v -8.00002 a 1,1 0 0 1 -1,-1 v -2.999999 a 2,2 0 0 1 2,-2 h 3.169999 c -0.11,-0.31 -0.17,-0.65 -0.17,-1 a 3,3 0 0 1 3,-3 c 0.9999995,0 1.8799995,0.5 2.4300005,1.24 v -0.01 l 0.569999,0.77 0.57,-0.77 v 0.01 c 0.55,-0.74 1.43,-1.24 2.43,-1.24 a 3,3 0 0 1 2.999999,3 c 0,0.35 -0.06,0.69 -0.17,1 h 3.17 a 2,2 0 0 1 2,2 v 2.999999 a 1,1 0 0 1 -1,1 M 4.8282485,103.30426 H 11.828248 V 95.30424 H 4.8282485 v 8.00002 m 15.9999985,0 v -8.00002 h -6.999999 v 8.00002 h 6.999999 M 9.8282485,87.304241 a 1,1 0 0 0 -1,1 1,1 0 0 0 1,1 1,1 0 0 0 0.9999995,-1 1,1 0 0 0 -0.9999995,-1 m 5.9999995,0 a 1,1 0 0 0 -1,1 1,1 0 0 0 1,1 1,1 0 0 0 1,-1 1,1 0 0 0 -1,-1 m -11.9999995,4 V 93.30424 H 11.828248 V 91.304241 H 3.8282485 m 9.9999995,0 v 1.999999 h 7.999999 v -1.999999 z"
       inkscape:connector-curvature="0"
       style="fill:#ff6600;fill-opacity:1" />
    <path
       id="path1476"
       d="m 4.1582494,-122.09575 h 3.999998 v 10 h -3.999999 v -10 m 6.9999996,1 h 4 v 9 h -4 v -9 m 7,-5 h 4 v 14 h -4 v -14 m 0,-8 h 4 v 4 h -1 v -1.93999 l -8.030001,8.02999 -3.9699996,-3.97 -4.599998,4.6 -1.060001,-1.06 5.659999,-5.66 3.9699996,3.96999 6.97,-6.96999 h -1.939999 z"
       inkscape:connector-curvature="0"
       style="fill:#ff6600;fill-opacity:1" />
    <path
       id="path1498"
       d="M 17.328248,28.50425 H 8.3282486 v -14 h 8.9999994 m -4.5,18 a 1.5,1.5 0 0 1 -1.5,-1.5 1.5,1.5 0 0 1 1.5,-1.5 1.5,1.5 0 0 1 1.5,1.5 1.5,1.5 0 0 1 -1.5,1.5 m 4,-21 H 8.8282486 a 2.5,2.5 0 0 0 -2.5000001,2.5 v 17 a 2.5,2.5 0 0 0 2.5000001,2.5 h 7.9999994 a 2.5,2.5 0 0 0 2.5,-2.5 v -17 a 2.5,2.5 0 0 0 -2.5,-2.5 z"
       inkscape:connector-curvature="0"
       style="fill:#ff6600;fill-opacity:1" />
    <path
       id="path1511"
       d="m 12.828248,-87.21176 c 1.359,0 2.484,-1.125 2.484,-2.484 0,-1.359 -1.125,-2.484 -2.484,-2.484 -1.359,0 -2.484,1.125 -2.484,2.484 0,1.359 1.125,2.484 2.484,2.484 z m 0,-9.468 c 3.891,0 6.984,3.094 6.984,6.984 0,5.25 -6.984,12.98402 -6.984,12.98402 0,0 -6.9839995,-7.73402 -6.9839995,-12.98402 0,-3.891 3.094,-6.984 6.9839995,-6.984 z"
       inkscape:connector-curvature="0"
       style="fill:#ff6600;fill-opacity:1" />
    <path
       id="path1522"
       d="M 3.5473374,159.75143 H 22.10916 c 0.97449,0 1.85618,0.88169 1.85618,1.85618 v 12.99328 c 0,0.97449 -0.88169,1.85618 -1.85618,1.85618 H 3.5473374 c -0.974495,0 -1.856181,-0.88169 -1.856181,-1.85618 v -12.99328 c 0,-0.97449 0.881686,-1.85618 1.856181,-1.85618 M 14.68443,162.5357 v 0.92809 h 7.42473 v -0.92809 h -7.42473 m 0,1.85619 v 0.92809 h 6.96068 0.46405 v -0.92809 h -7.42473 m 0,1.85618 v 0.92809 h 6.49664 v -0.92809 h -6.49664 m -5.5685496,3.62884 c -1.85618,0 -5.568541,1.01161 -5.568541,2.8678 v 0.92809 H 14.68443 v -0.92809 c 0,-1.85619 -3.71236,-2.8678 -5.5685496,-2.8678 m 0,-7.34121 a 2.7842725,2.7842725 0 0 0 -2.78427,2.78428 2.7842725,2.7842725 0 0 0 2.78427,2.78427 2.7842725,2.7842725 0 0 0 2.7842796,-2.78427 2.7842725,2.7842725 0 0 0 -2.7842796,-2.78428 z"
       inkscape:connector-curvature="0"
       style="fill:#ff6600;fill-opacity:1;stroke-width:0.92809087" />
    <path
       id="path1552"
       d="m 13.828248,212.42425 c 1.8,-0.22 3.35,-0.97 4.65,-2.27 1.3,-1.3 2.05,-2.85 2.27,-4.65 h -3 c -0.22,1 -0.68,1.84 -1.38,2.54 -0.7,0.7 -1.54,1.16 -2.54,1.38 v 3 m -3,-11.92 h 4 l 3,3 h 2.92 c -0.25,-1.95 -1.13,-3.62 -2.65,-5 -1.51,-1.34 -3.27,-2 -5.27,-2 -2,0 -3.7599996,0.66 -5.2699995,2 -1.52,1.38 -2.4000001,3.05 -2.6500001,5 h 2.9200001 l 2.9999995,-3 m 1,11.92 v -3 c -1,-0.22 -1.8399994,-0.68 -2.5399996,-1.38 -0.7,-0.7 -1.1599999,-1.54 -1.3799999,-2.54 h -3 c 0.22,1.77 0.97,3.3 2.27,4.6 1.2999999,1.3 2.8499995,2.07 4.6499995,2.32 m 1,-17.92 c 2.75,0 5.1,1 7.05,2.95 1.95,1.95 2.95,4.3 2.95,7.05 0,2.75 -1,5.1 -2.95,7.05 -1.95,1.95 -4.3,2.95 -7.05,2.95 -2.75,0 -5.0999995,-1 -7.0499996,-2.95 -1.95,-1.94999 -2.9499999,-4.3 -2.9499999,-7.05 0,-2.75 0.9999999,-5.1 2.9499999,-7.05 1.9500001,-1.95 4.2999996,-2.95 7.0499996,-2.95 z"
       inkscape:connector-curvature="0"
       style="fill:#ff6600;fill-opacity:1" />
    <path
       id="path932"
       d="m 4.3282465,703.60425 a 2,2 0 0 0 -2,2 v 14 a 2,2 0 0 0 2,2 H 13.41825 c -0.06,-0.33 -0.09,-0.66 -0.09,-1 0,-0.68 0.12,-1.36 0.35,-2 H 4.3282465 l 3.500003,-4.5 2.5000005,3 3.5,-4.5 2.23,2.97 c 0.97,-0.63 2.11,-0.97 3.27,-0.97 0.34,0 0.67,0.03 1,0.09 v -9.09 c 0,-1.11 -0.9,-2 -2,-2 H 4.3282465 m 14.0000035,13 v 3 h -3 v 2 h 3 v 3 h 2 v -3 h 3 v -2 h -3 v -3 z"
       inkscape:connector-curvature="0"
       style="fill:#ff6600;fill-opacity:0.90980392" />
    <path
       id="path943"
       d="m 3.7032485,-157.99575 -0.75,-1.5 h 5.25 l -0.6,-1.5 h -4.9 l -0.75,-1.5 h 7.8000002 l -0.6000002,-1.5 h -7.34 l -0.86000004,-1.5 H 4.7032485 a 2,2 0 0 1 2,-2 H 18.703248 v 4 h 3 l 3,4 v 5 h -2 a 3,3 0 0 1 -3,3 3,3 0 0 1 -3,-3 h -4 a 3,3 0 0 1 -2.9999993,3 3,3 0 0 1 -3.0000002,-3 h -2 v -3.5 h -1 m 15.9999995,5 a 1.5,1.5 0 0 0 1.5,-1.5 1.5,1.5 0 0 0 -1.5,-1.5 1.5,1.5 0 0 0 -1.5,1.5 1.5,1.5 0 0 0 1.5,1.5 m 1.5,-9 h -2.5 v 2.5 h 4.46 l -1.96,-2.5 m -11.4999993,9 a 1.5,1.5 0 0 0 1.4999993,-1.5 1.5,1.5 0 0 0 -1.4999993,-1.5 1.5,1.5 0 0 0 -1.5000002,1.5 1.5,1.5 0 0 0 1.5000002,1.5 z"
       inkscape:connector-curvature="0"
       style="fill:#ff6600;fill-opacity:0.90980392" />
    <path
       id="path954"
       d="M 3.8282465,-21.89575 H 17.82825 v 4 h 3 l 3,4 v 5.0000001 h -2 a 3,3 0 0 1 -3,3 3,3 0 0 1 -3,-3 H 9.8282495 a 3,3 0 0 1 -3,3 3,3 0 0 1 -3.000003,-3 h -2 V -19.89575 c 0,-1.11 0.9,-2 2,-2 m 14.0000035,5.5 v 2.5 h 4.47 l -1.97,-2.5 h -2.5 m -11.0000005,6 a 1.5,1.5 0 0 0 -1.5,1.5000001 1.5,1.5 0 0 0 1.5,1.5 1.5,1.5 0 0 0 1.5,-1.5 1.5,1.5 0 0 0 -1.5,-1.5000001 m 12.0000005,0 a 1.5,1.5 0 0 0 -1.5,1.5000001 1.5,1.5 0 0 0 1.5,1.5 1.5,1.5 0 0 0 1.5,-1.5 1.5,1.5 0 0 0 -1.5,-1.5000001 m -10.0000005,-1.5 6.0000005,-6 -1.41,-1.42 -4.5900005,4.59 -2.09,-2.09 -1.41,1.42 z"
       inkscape:connector-curvature="0"
       style="fill:#ff6600;fill-opacity:0.90980392" />
    <path
       id="path847-3"
       d="M 3.8282485,744.50425 H 21.828248 v 2 H 3.8282485 v -2 m 0,5 H 21.828248 v 2 H 3.8282485 v -2 m 0,5 H 21.828248 v 2 H 3.8282485 Z"
       inkscape:connector-curvature="0" />
    <path
       id="path858-6"
       d="m 19.828248,781.31425 -1.41,-1.41 -5.59,5.59 -5.5899996,-5.59 -1.41,1.41 5.5899996,5.59 -5.5899996,5.59 1.41,1.41 5.5899996,-5.59 5.59,5.59 1.41,-1.41 -5.59,-5.59 z"
       inkscape:connector-curvature="0"
       style="fill:#ff6600;fill-opacity:0.90980393" />
  </g>
</svg>
