<svg height="512pt" viewBox="0 0 512 512" width="512pt" xmlns="http://www.w3.org/2000/svg"><path d="m507.859375 413.34375-408.953125-408.953125c-2.425781-2.425781-6.359375-2.425781-8.785156 0l-88.050782 88.050781c-2.425781 2.425782-2.425781 6.359375 0 8.785156l408.953126 408.953126c2.425781 2.425781 6.359374 2.425781 8.785156 0l88.050781-88.050782c2.425781-2.425781 2.425781-6.359375 0-8.785156zm-425.453125-304.410156c-6.683594 6.6875-17.523438 6.6875-24.207031 0-6.6875-6.683594-6.6875-17.523438 0-24.207032 6.683593-6.683593 17.523437-6.683593 24.207031 0 6.683594 6.683594 6.683594 17.523438 0 24.207032zm0 0" fill="#ffaf10"/><path d="m507.859375 413.34375-408.953125-408.953125c-2.425781-2.425781-6.359375-2.425781-8.785156 0l-8.03125 8.03125 400.921875 400.921875c2.425781 2.425781 2.425781 6.359375 0 8.785156l-80.019531 80.019532 8.03125 8.03125c2.425781 2.425781 6.359374 2.425781 8.785156 0l88.050781-88.050782c2.425781-2.425781 2.425781-6.359375 0-8.785156zm0 0" fill="#ff890a"/><path d="m367.515625 273-24.210937 24.210938c-3.03125 3.03125-3.03125 7.949218 0 10.980468 1.515624 1.515625 3.503906 2.273438 5.492187 2.273438 1.984375 0 3.972656-.757813 5.488281-2.273438l24.210938-24.210937zm0 0" fill="#f26a09"/><path d="m424.910156 330.398438-10.980468-10.980469-24.210938 24.207031c-3.03125 3.035156-3.03125 7.949219 0 10.984375 1.515625 1.515625 3.503906 2.273437 5.492188 2.273437 1.984374 0 3.972656-.757812 5.488281-2.273437zm0 0" fill="#f26a09"/><path d="m460.34375 365.832031-24.207031 24.210938c-3.035157 3.03125-3.035157 7.949219 0 10.980469 1.515625 1.515624 3.503906 2.273437 5.488281 2.273437 1.988281 0 3.976562-.757813 5.492188-2.273437l24.207031-24.210938h.003906zm0 0" fill="#f26a09"/><path d="m369.03125 69.558594-347.140625 347.136718-21.699219 86.789063c-1.136718 4.550781 2.984375 8.671875 7.535156 7.535156l86.789063-21.699219 345.714844-345.714843zm0 0" fill="#69cdff"/><path d="m369.03125 69.558594-12.667969 12.667968 59.019531 61.378907-345.714843 345.714843-69.433594 17.359376c.867187 3.058593 4.054687 5.199218 7.492187 4.339843l86.789063-21.699219 345.714844-345.714843zm0 0" fill="#5fb4f5"/><path d="m385.636719 89.265625c-3.035157-3.03125-7.953125-3.03125-10.984375 0l-337.90625 337.90625c-3.03125 3.03125-3.03125 7.949219 0 10.980469 1.515625 1.515625 3.503906 2.277344 5.492187 2.277344 1.984375 0 3.972657-.761719 5.488281-2.277344l337.910157-337.90625c3.03125-3.03125 3.03125-7.949219 0-10.980469zm0 0" fill="#4996d1"/><path d="m421.945312 125.574219c-3.03125-3.03125-7.949218-3.03125-10.980468 0l-338.078125 338.082031c-3.035157 3.03125-3.035157 7.949219 0 10.980469 1.515625 1.515625 3.503906 2.277343 5.488281 2.277343 1.988281 0 3.976562-.757812 5.492188-2.277343l338.078124-338.078125c3.035157-3.035156 3.035157-7.949219 0-10.984375zm0 0" fill="#4996d1"/><path d="m471.292969 112.542969 29.890625-29.890625c13.371094-13.371094 13.371094-35.046875 0-48.417969l-24.207032-24.207031c-13.371093-13.371094-35.046874-13.371094-48.414062 0l-28.074219 28.074218zm0 0" fill="#f26892"/><path d="m501.183594 34.234375-24.207032-24.207031c-9.882812-9.886719-24.308593-12.453125-36.558593-7.722656 4.320312 1.667968 8.371093 4.238281 11.855469 7.722656l24.207031 24.207031c13.371093 13.371094 13.371093 35.046875 0 48.417969l-17.230469 17.230468 12.042969 12.660157 29.890625-29.890625c13.371094-13.371094 13.371094-35.046875 0-48.417969zm0 0" fill="#f24976"/><path d="m436.273438 150.882812-75.945313-75.941406c-2.425781-2.425781-2.425781-6.359375 0-8.785156l39.632813-39.632812c2.425781-2.425782 6.359374-2.425782 8.785156 0l75.941406 75.945312c2.425781 2.425781 2.425781 6.359375 0 8.785156l-39.628906 39.628906c-2.425782 2.425782-6.359375 2.425782-8.785156 0zm0 0" fill="#ffaf10"/><path d="m484.691406 102.46875-75.945312-75.945312c-2.425782-2.425782-6.359375-2.425782-8.785156 0l-8.273438 8.273437 67.828125 67.816406c2.425781 2.425781 2.425781 6.355469 0 8.78125l-31.28125 31.453125 8.039063 8.035156c2.425781 2.425782 6.359374 2.425782 8.785156 0l39.632812-39.628906c2.425782-2.425781 2.425782-6.359375 0-8.785156zm0 0" fill="#ff890a"/><path d="m87.898438 79.238281c-9.703126-9.703125-25.488282-9.703125-35.191407 0-9.703125 9.699219-9.703125 25.484375 0 35.1875 4.699219 4.699219 10.949219 7.289063 17.59375 7.289063 6.648438 0 12.894531-2.589844 17.597657-7.289063 9.699218-9.703125 9.699218-25.488281 0-35.1875zm-10.984376 24.207031c-1.765624 1.765626-4.113281 2.738282-6.613281 2.738282-2.496093 0-4.84375-.972656-6.613281-2.738282-3.644531-3.648437-3.644531-9.582031 0-13.226562 1.824219-1.824219 4.21875-2.734375 6.613281-2.734375s4.792969.910156 6.613281 2.734375c3.648438 3.644531 3.648438 9.578125 0 13.226562zm0 0" fill="#ff890a"/><g fill="#f26a09"><path d="m135.4375 40.921875-24.210938 24.210937c-3.03125 3.03125-3.03125 7.949219 0 10.980469 1.515626 1.519531 3.503907 2.277344 5.492188 2.277344 1.984375 0 3.972656-.757813 5.488281-2.277344l24.210938-24.207031zm0 0"/><path d="m181.851562 87.335938c0 .003906 0 .003906 0 0l-24.210937 24.210937c-3.03125 3.035156-3.03125 7.949219 0 10.980469 1.515625 1.515625 3.503906 2.277344 5.492187 2.277344 1.988282 0 3.972657-.757813 5.488282-2.277344l24.210937-24.207032v-.003906zm0 0"/><path d="m228.269531 133.753906-24.210937 24.210938c-3.03125 3.03125-3.03125 7.949218 0 10.980468 1.515625 1.515626 3.503906 2.273438 5.488281 2.273438 1.988281 0 3.976563-.757812 5.492187-2.273438l24.210938-24.210937zm0 0"/><path d="m380.703125 45.78125 10.980469-10.984375 84.730468 84.730469-10.984374 10.980468zm0 0"/></g><path d="m7.726562 511.019531 86.789063-21.699219-5.242187-26.195312c-.492188-2.460938-2.410157-4.382812-4.871094-4.875-5.789063-1.15625-16.351563-3.269531-22.140625-4.429688-2.457031-.492187-4.378907-2.414062-4.871094-4.871093l-4.429687-22.140625c-.488282-2.457032-2.414063-4.378906-4.871094-4.871094l-26.199219-5.242188-21.699219 86.789063c-1.136718 4.550781 2.984375 8.671875 7.535156 7.535156zm0 0" fill="#ffe2b8"/><path d="m27.375 421.9375c2.460938.492188 4.382812 2.414062 4.875 4.875l4.425781 22.136719c.492188 2.460937 2.40625 4.378906 4.867188 4.871093 5.789062 1.15625 16.355469 3.273438 22.148437 4.429688 2.457032.492188 4.378906 2.414062 4.871094 4.875l1.742188 8.707031c.648437 3.25-1.367188 6.441407-4.585938 7.246094l-63.386719 15.84375-2.140625 8.5625c-1.136718 4.550781 2.984375 8.671875 7.53125 7.535156l86.792969-21.699219-2.621094-13.097656-2.621093-13.101562c-.492188-2.457032-2.40625-4.378906-4.863282-4.867188-5.789062-1.160156-16.359375-3.273437-22.148437-4.433594-.726563-.144531-1.398438-.425781-2.007813-.796874-.386718-.238282-.75-.507813-1.074218-.820313-.03125-.027344-.0625-.050781-.09375-.082031-.789063-.789063-1.351563-1.796875-1.628907-2.921875-.019531-.085938-.050781-.164063-.066406-.25l-4.429687-22.136719c-.121094-.617188-.335938-1.195312-.621094-1.730469-.289063-.535156-.652344-1.019531-1.078125-1.445312-.847657-.847657-1.945313-1.453125-3.171875-1.699219l-26.199219-5.238281-.988281 3.945312zm0 0" fill="#ffcaa1"/><path d="m9.785156 465.117188-9.59375 38.367187c-1.136718 4.550781 2.984375 8.671875 7.53125 7.535156l38.371094-9.59375zm0 0" fill="#445ea0"/><path d="m32.140625 487.472656-29.808594 7.449219-.738281 2.960937-1.402344 5.601563c-.1406248.570313-.1992185 1.132813-.18749975 1.679687.00781255.269532.03124995.539063.07421875.804688.207031 1.316406.839844 2.503906 1.75 3.414062.363281.367188.769531.6875 1.214844.953126.667969.398437 1.410156.675781 2.203125.800781.527344.082031 1.074218.097656 1.632812.035156.28125-.03125.5625-.082031.847656-.152344l38.371094-9.59375zm0 0" fill="#394f87"/></svg>